<svg xmlns="http://www.w3.org/2000/svg" viewBox="0 0 554 154" width="554" height="154" role="img" aria-label="Adveny"><title>Adveny</title><path fill="#050506" fill-rule="evenodd" d="M175.25 1.5L198.75 1.75L199.75 2.25L198.75 116.75L197.75 117.25L174.25 117L173.75 116.5L173.75 110.25L173 110.25L167 114.75L162 117L160.5 117L158.25 118L148 118.5L142.25 117.75L141.75 117.25L139.5 117L138.5 116.25L136.75 116L136 115.25L132.25 113.75L131.75 113L129.5 112L128.75 111L125.75 109L120.25 102.75L116 95L115.75 93.5L115.25 93.25L113.25 86L112.5 79.5L113 67.75L115.25 59.5L116 58.75L116 57.75L116.75 57L118.25 53.25L120 51L120.25 50L120.75 50L121 49L126.25 43.25L126.75 43.25L128.75 41.25L129.75 41L130.5 40L133.25 38.75L133.75 38L134.75 38L136 37L137 37L137.75 36.25L139.75 36L141.75 35L143.5 35L146 34.25L155.5 34.25L163.75 36.25L164 36.75L164.75 36.75L170.5 40L173.25 42.75L174 42.5L174.5 2.25L175.25 1.75ZM44 7L73.75 7.25L74 9L75 10.25L75 11.5L76 13L77 16.75L77.75 17.5L78 19.25L79 20.75L79 22L80 23.25L80 24.5L81 26L82 29.75L82.75 30.5L83 32.25L84 33.75L84 35L85 36.25L85 37.5L86 39L87 42.75L87.75 43.5L88 45.25L89 46.75L89 48L90 49.25L90 50.5L92 54.5L92 55.75L93 57L93 58.25L94 59.75L94.25 61.5L95 62.25L96 66L97 67.5L97 68.75L98 70L98 71.25L99 72.75L99.25 74.5L100 75.25L101 79L102 80.5L102 81.75L103 83L103 84.25L104 85.75L104.25 87.5L105 88.25L106 92L107 93.5L107 94.75L108 96L108 97.25L109 98.75L109 99.75L110 101.25L110.25 103L110.75 103.25L111 105L112 106.5L112.25 108.25L112.75 108.5L113.25 110.75L115.25 115.25L115 116.75L87.5 116.5L87 116L86 114L85.75 112.25L85 111.25L84.75 109.5L84.25 109.25L83.75 106.75L83 106L83 104.75L82 103.25L82 102L81.25 101.25L80.75 98.75L80 98L80 96.75L79 95.25L79 94L78.25 93.25L77.75 90.75L77 90L77 88.75L76 87.25L76 86L75 84.5L75 83.25L74.25 82.5L73 78L72 76.5L72 75.25L71.25 74.5L70 70L69 68.5L69 67.25L68.25 66.5L66 59.25L65 57.75L64.75 56L64.25 55.75L63 51.25L62 49.75L61.75 48L61.25 47.75L60 43.25L59 41.75L58 38.25L57.25 38L56 42L55 43.5L55 44.75L54 46L53 49.75L51 53.75L51 55L50 56.25L49 60L47 64L46 67.75L45.25 68.5L43.75 73.5L43 74.25L42.75 76L42.25 76.25L41.75 78.5L41.25 78.75L41 80.5L39 84.75L39 85.75L38 87L38 88.25L37 89.75L37 90.75L36 92.25L35 96L34 97.25L34 98.5L33 100L33 101L32 102.5L32 103.75L31 105L30.75 106.75L30.25 107L30 108.75L29 110.25L29 111.25L28 112.75L28 114L27 115.75L0 115.75L0 114.5L1 113.75L1 112.75L2 111.25L2 110.25L3 108.75L3 107.75L4 106.25L4 105.25L5 103.75L5 102.75L6 101.25L6 100.25L7 98.75L7 97.75L8 96.25L8 95.25L9 93.75L9 92.75L10 91.25L10 90.25L11 88.75L12 85.25L13 83.75L13.25 82.25L13.75 82L14 80.25L15 79L16 75.25L17 74L18 70.25L19 69L20 65.25L21 64L22 60.25L23 59L24 55.25L25 54L26 50.25L27 49L27.25 47.25L27.75 47L28 45.5L29 44L29 43L30 41.5L30 40.5L31 39L31 38L32 36.5L32 35.5L33 34L33 33L34 31.5L34 30.5L35 29L35 28L36 26.5L36 25.5L37 24L37 23L38 21.5L38 20.5L39 19L39 18L40 16.5L40 15.5L41 14L41 13L42 11.5L43 8L44 7.25ZM324.5 35.5L333.75 35.5L342.25 37L350.25 40.25L356.75 44.5L362 49.5L366.75 56.25L369 60.75L369 61.75L369.75 62.5L372 72L372 82.25L371.25 86.5L370.75 87L313 86.75L313 88.25L313.75 88.75L315.25 91.5L317.75 94L322.75 97L326 98L333.25 98.25L338.75 97L343.75 94L346 91.75L347.25 89.75L348.5 89.75L350.75 91L351.75 91L352 91.5L353.75 92L357 94L358 94L358.25 94.5L360 95L363.25 97L364.25 97L366.75 98.25L367.75 99.75L364 104.75L359.5 109.25L359 109.25L359 109.75L353 114L352.25 114L352 114.5L350.25 115L349.25 116L348.25 116L346.75 117L340 119L334 119.75L326 119.75L320 119L318.5 118.25L315.25 117.75L311.75 116L310.75 116L309.75 115L307 114L303 111L302 110.75L302 110.25L300 109L294 102.5L290 96L290 95L289 93.75L289 92.5L288 91L288 89.5L287.25 88.25L286.25 82.5L286.25 72.5L288 64L288.75 63L289 61.25L290 60L290 59L291 58L291 57L294 53L294.25 52L294.75 52L295.25 50.75L299.75 46L300.25 46L303.5 43L313 38L314 38L316 37L318.5 36.75L320 36L324.5 35.75ZM202 36L228.25 36.25L228.75 36.75L230.25 41.75L231 42.75L231.25 44.75L232 45.75L232.25 47.75L233 48.75L233.25 50.75L233.75 51L234.25 53.5L235 54.5L235.25 56.5L236 57.5L236.25 59.5L237 60.5L237.25 62.5L238 63.25L238 64.5L238.75 65.5L239 67.5L239.75 68.5L241.25 74.25L242 75L242 76.25L242.75 77.25L243 79.25L243.75 80.25L244 82.25L245 84L245 85.25L245.75 86.25L246 88L247 90L247.75 90L248.25 87.75L248.75 87.5L249.25 85L250 84L250 82.75L251 81.25L251 80L251.75 79L252.25 76.5L253 75.75L253.25 73.75L253.75 73.5L255.25 68.25L256 67.25L256 66L257 64.5L257.25 62.5L258 61.75L258.25 59.75L259 59L259 57.75L261 53.25L261 52L261.75 51.25L262 49.25L263 47.75L263.25 45.75L264 45L264 43.75L264.75 42.75L266.25 37.5L267.25 36.5L291.25 36.75L292 37.25L291.75 38.5L291 39.25L290.75 41L290.25 41.25L290 43L289 44.25L289 45.5L288 47L288 48L287 49.5L287 50.5L286 52L285 55.75L284 57L283 60.75L281 64.75L280.75 66.5L280 67.25L279 71L278 72.25L277.75 74L277.25 74.25L277 76L275 80L274 83.75L273 85L272 88.75L269 95.25L268 99L267 100.25L266.75 102L266.25 102.25L266 104L264 108L263 111.75L262 113L261 116.75L260 117.75L249.25 117.75L232.5 117.5L231.75 116.75L231 114L230 112.5L230 111.25L229.25 110.5L229 108.75L228 107.25L228 106L227.25 105.25L226.75 102.75L226 102L226 100.75L225 99.25L225 98L224.25 97.25L223.75 94.75L223 94L223 92.75L222 91.25L221.75 89.5L221 88.75L221 87.5L220 86L218.75 81.5L218 80.75L218 79.5L217 78L217 77L215 72.75L214.75 71L214.25 70.75L213 66.25L212 64.75L211.75 63L211.25 62.75L210 58.25L209 56.75L208 53L207 51.5L207 50.25L206.25 49.5L205 45L204 43.5L204 42.25L203.25 41.5L203 39.75L202 38.25L202 36.25ZM427.75 36L435 36.25L437 37L439 37L440.25 37.75L442.75 38.25L443 38.75L443.75 38.75L448 41L450.75 43L455 47.25L456.25 49.75L457.75 51.5L459.25 55.5L459.75 55.75L461.75 64.75L461.5 118.5L461 119L436.25 118.75L436.5 71.25L435 66.25L434.25 65.75L433 63.5L430 61L424.5 59L417.75 59L415.5 60L414.25 60L413.25 61L412 61.25L412 61.75L411 62L408 65.25L406 69.5L405.5 79L405.5 113.75L405 118.5L391 118.75L381 118.5L380.25 118L380.5 52L381 37.5L405.5 37.5L406 38L405.75 45.5L406 46L406.75 46L411.75 41.25L416.25 38.75L417 38.75L417.25 38.25L424.75 36.25L427.75 36.25ZM461.5 38L487.75 38L488.25 38.5L506.25 91.5L507 91.5L507.25 90.5L507.75 90.25L508 88.25L508.75 87.5L509.25 85L510 84L510 82.75L511 81.25L511.25 79.25L511.75 79L512.25 76.5L512.75 76.25L513.25 73.75L513.75 73.5L514.25 71L514.75 70.75L515.25 68.25L516 67.25L516 66L517 64.5L517.25 62.5L518 61.75L518.25 59.75L518.75 59.5L520.25 54.25L521 53.25L521 52L521.75 51.25L522 49.25L523 47.75L523.25 45.75L524 45L524 43.75L524.75 42.75L525 41L526.25 38.25L550.75 38.5L551.25 39L551 41L550 42.25L550 43.5L547 50L546 53.75L545 55L544 58.75L541 65.25L540 69L539 70.25L538.75 72L538.25 72.25L538 74L536 78L535 81.75L534 83L533 86.75L532.25 87.5L532 89.25L530 93.25L529 97L528 98.25L527 102L524 108.5L524 109.75L523 111L522 114.75L521 116L521 117.25L518 123.75L518 125L517 126.25L516.75 128L516.25 128.25L515.75 130.5L515.25 130.75L515 132.5L514 134L514 135L513 136.5L512.75 138.25L512.25 138.5L511.75 140.75L511.25 141L511 142.75L510 144L510 145L508 150L507.25 150.5L483 150.5L482.5 150L483 147.5L485 143.5L485 142.5L485.75 141.5L486.25 139.25L486.75 139L487 137.25L488 136L488 134.75L491 128.25L491 127L492 125.75L492.25 124L492.75 123.75L492.75 121.75L492 121L492 119.75L491 118.25L490.75 116.5L490 115.75L490 114.5L489 113L487.75 108.5L487 107.75L487 106.5L486 105L485.75 103.25L485.25 103L485 101.25L484 99.75L482 93.25L481 91.75L480 88L479 86.5L479 85.25L478.25 84.5L477 80L476 78.5L476 77.25L475.25 76.5L475 74.75L474 73.25L474 72L473.25 71.25L472.75 68.75L472.25 68.5L472 66.75L471 65.25L471 64L470.25 63.25L469.75 60.75L469.25 60.5L468.75 58.25L468 57.25L467.75 55.5L467 54.75L467 53.5L466 52L464.75 47.5L464 46.75L464 45.5L463 44L462 40.25L461 38.75L461.5 38.25ZM328.5 56.75L322.25 58L321.25 59L320.5 59L318.25 60.5L314 65.25L313.25 67.75L341.25 68L345 68L345.5 67.25L343.75 64L343.25 64L342.75 62.75L341 61L336.25 58L333 57L328.75 56.75ZM153.5 57.25L150.25 58L149.5 58.75L146.5 60L142 64.5L142 65.25L141.25 65.75L141 67L140 68.25L140 69.5L139 71.5L138.75 79L139 81.25L139.75 82.5L140.25 85L143 89.5L147 93L147.75 93L150.5 94.75L154.25 95.5L158.5 95.5L164 94L169.25 89.75L170 88.25L171 87.5L171 86.75L172 85.75L172.25 84.25L173 83.25L174 78.25L174 74.25L173 69.25L171.75 66.5L170.25 64.75L170 63.75L166.75 60.5L162.25 58L161 58L159.25 57.25L153.75 57.25Z"></path></svg>